<?xml version="1.0" encoding="iso-8859-1"?>
<!-- Uploaded to: SVG Repo, www.svgrepo.com, Generator: SVG Repo Mixer Tools -->
<!DOCTYPE svg PUBLIC "-//W3C//DTD SVG 1.1//EN" "http://www.w3.org/Graphics/SVG/1.1/DTD/svg11.dtd">
<svg fill="#000000" version="1.1" id="Capa_1" xmlns="http://www.w3.org/2000/svg" xmlns:xlink="http://www.w3.org/1999/xlink" 
	 width="800px" height="800px" viewBox="0 0 49.495 49.495"
	 xml:space="preserve">
<g>
	<g>
		<path d="M1.434,28.084c1.527,0.188,3.644,0.847,3.644,1.587c0,0.207,0.128,0.393,0.321,0.467c0.189,0.073,0.412,0.021,0.551-0.133
			c0.026-0.027,2.688-2.917,7.878-2.917c5.405,0,8.5,2.556,8.5,3.25c0,0.241,0.172,0.447,0.408,0.491
			c0.24,0.044,0.471-0.087,0.559-0.312c0.019-0.051,1.904-4.85,4.922-4.85c0.01,0,0.021,0,0.027,0
			c1.557,0.018,4.362,0.042,6.073,2.143c0.193,0.269,0.318,0.438,0.354,0.486c0.16,0.223,0.467,0.271,0.688,0.116
			s0.281-0.456,0.136-0.686c-0.118-0.184-0.243-0.354-0.372-0.518c-1.658-2.314-8.548-12.151-8.548-15.794
			c0-0.194-0.112-0.371-0.288-0.453c-0.175-0.083-0.382-0.056-0.531,0.068c-0.058,0.047-5.736,4.688-10.149,1.041
			c-0.052-0.056-1.274-1.379-0.466-2.437c0.094-0.123,0.124-0.282,0.085-0.432s-0.146-0.272-0.289-0.333
			c-0.008-0.003-0.812-0.354-1.062-1.093c-0.164-0.483-0.062-1.055,0.304-1.7c1.356-2.392,3.701-4.431,3.779-4.506
			c0.012-0.014,1.186-1.341,3.882,0.116c0.351,0.189,0.768,0.409,1.236,0.656c3.612,1.901,10.334,5.439,12.925,9.109
			c0.548,0.773,1.248,1.658,2.062,2.682c3.635,4.578,9.113,11.486,9.43,19.683c-0.25,0.541-1.715,3.412-5.574,5.773
			c-3.948,2.418-11.291,4.786-23.824,2.332c-0.13-0.025-0.272,0.002-0.385,0.082c-0.113,0.079-0.187,0.2-0.206,0.338
			c-0.006,0.039-0.591,3.967-2.71,6.318c-0.185,0.205-0.168,0.521,0.037,0.706c0.096,0.086,0.216,0.128,0.335,0.128
			c0.137,0,0.272-0.056,0.372-0.166c1.867-2.074,2.626-5.123,2.865-6.331c3.566,0.67,6.729,0.956,9.533,0.956
			c16.356-0.001,20.479-9.74,20.523-9.854c0.026-0.064,0.038-0.135,0.036-0.203c-0.276-8.578-5.917-15.683-9.646-20.385
			c-0.806-1.012-1.496-1.887-2.025-2.638c-2.729-3.866-9.592-7.477-13.278-9.417c-0.465-0.245-0.879-0.463-1.228-0.651
			c-3.397-1.837-5.051,0.036-5.063,0.062c-0.102,0.087-2.499,2.169-3.941,4.715c-0.515,0.908-0.643,1.758-0.378,2.525
			c0.237,0.689,0.741,1.144,1.126,1.405c-0.558,1.27,0.255,2.644,0.868,3.285c4.082,3.376,8.941,0.736,10.749-0.476
			c0.651,3.412,4.48,9.436,6.937,13.036c-1.628-0.668-3.354-0.686-4.443-0.695c-2.725-0.035-4.565,2.925-5.363,4.513
			c-1.268-1.495-4.704-3.096-8.974-3.096c-4.277,0-6.947,1.781-8.048,2.708c-0.904-1.229-3.599-1.627-4.225-1.704
			c-0.268-0.035-0.522,0.161-0.557,0.437C0.965,27.799,1.16,28.05,1.434,28.084z"/>
		<path d="M30.738,39.531c1.036,0,2.114-0.15,3.146-0.551c1.934-0.75,3.356-2.25,4.239-4.457c0.104-0.256-0.021-0.547-0.276-0.65
			c-0.256-0.103-0.547,0.021-0.647,0.279c-0.771,1.938-2.013,3.248-3.671,3.895c-3.604,1.402-8.104-0.721-8.146-0.743
			c-0.25-0.119-0.549-0.015-0.668,0.233c-0.12,0.249-0.016,0.547,0.233,0.667C25.093,38.275,27.739,39.531,30.738,39.531z"/>
	</g>
</g>
</svg>